<svg width="14" height="13" viewBox="0 0 14 13" fill="none" xmlns="http://www.w3.org/2000/svg">
<path d="M11.8125 0.625C12.0859 0.643229 12.2318 0.789062 12.25 1.0625V2.375H13.5625C13.8359 2.39323 13.9818 2.53906 14 2.8125C13.9818 3.08594 13.8359 3.23177 13.5625 3.25H12.25V4.5625C12.2318 4.83594 12.0859 4.98177 11.8125 5C11.5391 4.98177 11.3932 4.83594 11.375 4.5625V3.25H10.0625C9.78906 3.23177 9.64323 3.08594 9.625 2.8125C9.64323 2.53906 9.78906 2.39323 10.0625 2.375H11.375V1.0625C11.3932 0.789062 11.5391 0.643229 11.8125 0.625ZM11.8125 8.5C12.0859 8.51823 12.2318 8.66406 12.25 8.9375V10.25H13.5625C13.8359 10.2682 13.9818 10.4141 14 10.6875C13.9818 10.9609 13.8359 11.1068 13.5625 11.125H12.25V12.4375C12.2318 12.7109 12.0859 12.8568 11.8125 12.875C11.5391 12.8568 11.3932 12.7109 11.375 12.4375V11.125H10.0625C9.78906 11.1068 9.64323 10.9609 9.625 10.6875C9.64323 10.4141 9.78906 10.2682 10.0625 10.25H11.375V8.9375C11.3932 8.66406 11.5391 8.51823 11.8125 8.5ZM3.36328 8.55469L0.246094 7.10547C0.0820312 7.03255 0 6.90495 0 6.72266C0 6.54036 0.0820312 6.40365 0.246094 6.3125L3.36328 4.86328L4.8125 1.74609C4.90365 1.58203 5.04036 1.5 5.22266 1.5C5.40495 1.5 5.53255 1.58203 5.60547 1.74609L7.05469 4.86328L10.1719 6.3125C10.3359 6.40365 10.418 6.54036 10.418 6.72266C10.418 6.90495 10.3359 7.03255 10.1719 7.10547L7.05469 8.55469L5.60547 11.6719C5.53255 11.8359 5.40495 11.918 5.22266 11.918C5.04036 11.918 4.90365 11.8359 4.8125 11.6719L3.36328 8.55469ZM1.47656 6.72266L3.74609 7.76172C3.92839 7.85286 4.0651 7.98958 4.15625 8.17188L5.22266 10.4414L6.26172 8.17188C6.35286 7.98958 6.48958 7.85286 6.67188 7.76172L8.94141 6.72266L6.67188 5.65625C6.48958 5.5651 6.35286 5.42839 6.26172 5.24609L5.22266 2.97656L4.15625 5.24609C4.0651 5.42839 3.92839 5.5651 3.74609 5.65625L1.47656 6.72266Z" fill="#393F41"/>
</svg>
