<svg
      width="20"
      height="20"
      viewBox="0 0 20 20"
      fill="none"
      xmlns="http://www.w3.org/2000/svg"
    >
      <rect width="20" height="20" fill="white" />
      <path
        d="M5.86415 13.5068H6.70545V12.3506H7.26475C7.98855 12.3506 8.40215 11.8994 8.40215 11.2837C8.40215 10.668 7.98855 10.2168 7.26475 10.2168H5.86415V13.5068ZM6.70545 11.6644V10.903H7.20835C7.47625 10.903 7.60315 11.0816 7.60315 11.2837C7.60315 11.4858 7.47625 11.6644 7.20835 11.6644H6.70545ZM8.82625 13.5068H9.99185C10.8896 13.5068 11.7168 13.0133 11.7168 11.8618C11.7168 10.7103 10.8896 10.2168 9.99185 10.2168H8.82625V13.5068ZM9.66285 12.7924V10.9312H9.89315C10.3914 10.9312 10.8755 11.1427 10.8755 11.8618C10.8755 12.5809 10.3914 12.7924 9.89315 12.7924H9.66285ZM12.2152 13.5068H13.0518V12.2284H14.2174V11.514H13.0518V10.9312H14.5323V10.2168H12.2152V13.5068Z"
        fill="#393F41"
      />
      <path
        fillRule="evenodd"
        clipRule="evenodd"
        d="M6.01294 17.3979H14.2332C15.5951 17.3979 16.6992 16.2939 16.6992 14.9319V7.01719C16.6992 6.36315 16.4394 5.7359 15.9769 5.27342L14.0274 3.32386C13.5649 2.86138 12.9376 2.60156 12.2836 2.60156H6.01294C4.65097 2.60156 3.54688 3.70566 3.54688 5.06763V14.9319C3.54688 16.2939 4.65097 17.3979 6.01294 17.3979Z"
        stroke="#323232"
        strokeWidth="1.3"
        strokeLinecap="round"
        strokeLinejoin="round"
      />
      <path
        d="M16.6969 7.12268H13.8198C12.9118 7.12268 12.1758 6.38662 12.1758 5.47864V2.60156"
        stroke="#323232"
        strokeWidth="1.3"
        strokeLinecap="round"
        strokeLinejoin="round"
      />
    </svg>