<svg
    width="20"
    height="20"
    viewBox="0 0 20 20"
    fill="none"
    xmlns="http://www.w3.org/2000/svg"
  >
    <path
      fillRule="evenodd"
      clipRule="evenodd"
      d="M15.6411 17.2531H4.35797C3.47144 17.2531 2.74609 16.5278 2.74609 15.6413V6.77594C2.74609 5.88538 3.46741 5.16406 4.35797 5.16406H15.6411C16.5276 5.16406 17.253 5.88941 17.253 6.77594V15.6413C17.253 16.5318 16.5317 17.2531 15.6411 17.2531Z"
      stroke="#323232"
      strokeWidth="1.3"
      strokeLinecap="round"
      strokeLinejoin="round"
    />
    <path
      fillRule="evenodd"
      clipRule="evenodd"
      d="M9.20259 8.98642L12.1354 10.7208C12.5061 10.94 12.5061 11.4768 12.1354 11.696L9.20259 13.4304C8.8246 13.6536 8.34668 13.3812 8.34668 12.9428V9.47401C8.34749 9.03558 8.82541 8.76317 9.20259 8.98642V8.98642Z"
      stroke="#323232"
      strokeWidth="1.3"
      strokeLinecap="round"
      strokeLinejoin="round"
    />
    <path
      d="M4.18457 5.1644V4.35846C4.18457 3.4679 4.90589 2.74658 5.79645 2.74658H14.2064C15.097 2.74658 15.8183 3.4679 15.8183 4.35846V5.1644"
      stroke="#323232"
      strokeWidth="1.3"
      strokeLinecap="round"
      strokeLinejoin="round"
    />
  </svg>